<svg xmlns="http://www.w3.org/2000/svg" xmlns:xlink="http://www.w3.org/1999/xlink" width="1920" zoomAndPan="magnify" viewBox="0 0 1440 809.999993" height="1080" preserveAspectRatio="xMidYMid meet" version="1.0"><defs><g/><clipPath id="71a301208a"><path d="M 440.417969 123.726562 L 999.914062 123.726562 L 999.914062 613.476562 L 440.417969 613.476562 Z M 440.417969 123.726562 " clip-rule="nonzero"/></clipPath><clipPath id="b712c7177a"><path d="M 720.277344 123.726562 L 1000.132812 613.476562 L 440.417969 613.476562 Z M 720.277344 123.726562 " clip-rule="nonzero"/></clipPath></defs><g clip-path="url(#71a301208a)"><g clip-path="url(#b712c7177a)"><path stroke-linecap="butt" transform="matrix(0.75, 0, 0, 0.75, 440.41856, 123.725522)" fill="none" stroke-linejoin="miter" d="M 373.145064 0.00138763 L 746.285707 653.00142 L -0.000788421 653.00142 Z M 373.145064 0.00138763 " stroke="#000000" stroke-width="8" stroke-opacity="1" stroke-miterlimit="4"/></g></g><path stroke-linecap="butt" transform="matrix(0.75, -0.000000000000000093, 0.000000000000000093, 0.75, 569.361482, 386.326407)" fill="none" stroke-linejoin="miter" d="M 0.00239956 2.002291 L 401.700336 2.002291 " stroke="#000000" stroke-width="4" stroke-opacity="1" stroke-miterlimit="4"/><path stroke-linecap="butt" transform="matrix(-0.000924687, -0.749999, 0.749999, -0.000924687, 718.775658, 613.485229)" fill="none" stroke-linejoin="miter" d="M -0.00132976 2.002248 L 298.879125 2.00095 " stroke="#000000" stroke-width="4" stroke-opacity="1" stroke-miterlimit="4"/><g fill="#000000" fill-opacity="1"><g transform="translate(613.884171, 490.306411)"><g><path d="M 7.015625 0 L 2.78125 0 L 2.78125 -21.421875 L 7.015625 -21.421875 Z M 7.015625 0 "/></g></g></g><g fill="#000000" fill-opacity="1"><g transform="translate(574.579486, 532.306409)"><g><path d="M 6.546875 3.0625 C 5.222656 1.414062 4.15625 -0.414062 3.34375 -2.4375 C 2.53125 -4.457031 2.125 -6.90625 2.125 -9.78125 C 2.125 -12.675781 2.53125 -15.132812 3.34375 -17.15625 C 4.15625 -19.175781 5.222656 -21.003906 6.546875 -22.640625 L 9.671875 -22.640625 L 9.734375 -22.34375 C 8.671875 -20.53125 7.851562 -18.648438 7.28125 -16.703125 C 6.707031 -14.765625 6.421875 -12.457031 6.421875 -9.78125 C 6.421875 -7.113281 6.707031 -4.804688 7.28125 -2.859375 C 7.851562 -0.921875 8.671875 0.945312 9.734375 2.75 L 9.671875 3.0625 Z M 6.546875 3.0625 "/></g></g><g transform="translate(585.228899, 532.306409)"><g><path d="M 20.546875 0 L 16.09375 0 L 14.484375 -4.9375 L 6.28125 -4.9375 L 4.671875 0 L 0.328125 0 L 7.71875 -21.421875 L 13.15625 -21.421875 Z M 10.1875 -16.953125 L 7.421875 -8.5 L 13.3125 -8.5 L 10.546875 -16.953125 Z M 10.1875 -16.953125 "/></g></g><g transform="translate(606.102921, 532.306409)"><g><path d="M 2.328125 0 L 2.328125 -16.15625 L 6.265625 -16.15625 L 6.265625 -13.75 L 6.578125 -13.703125 C 6.960938 -14.597656 7.472656 -15.253906 8.109375 -15.671875 C 8.742188 -16.085938 9.519531 -16.296875 10.4375 -16.296875 C 11.351562 -16.296875 12.050781 -16.140625 12.53125 -15.828125 L 11.84375 -12.328125 L 11.53125 -12.28125 C 11.269531 -12.382812 11.015625 -12.457031 10.765625 -12.5 C 10.523438 -12.550781 10.226562 -12.578125 9.875 -12.578125 C 8.738281 -12.578125 7.875 -12.179688 7.28125 -11.390625 C 6.6875 -10.597656 6.390625 -9.320312 6.390625 -7.5625 L 6.390625 0 Z M 2.328125 0 "/></g></g><g transform="translate(618.773819, 532.306409)"><g><path d="M 7.390625 0.3125 C 5.578125 0.3125 4.238281 -0.179688 3.375 -1.171875 C 2.507812 -2.171875 2.078125 -3.597656 2.078125 -5.453125 L 2.078125 -16.15625 L 6.140625 -16.15625 L 6.140625 -5.96875 C 6.140625 -4.976562 6.347656 -4.253906 6.765625 -3.796875 C 7.191406 -3.347656 7.851562 -3.125 8.75 -3.125 C 9.875 -3.125 10.75 -3.488281 11.375 -4.21875 C 12 -4.957031 12.3125 -6.117188 12.3125 -7.703125 L 12.3125 -16.15625 L 16.359375 -16.15625 L 16.359375 0 L 12.46875 0 L 12.46875 -2.375 L 12.15625 -2.453125 C 11.632812 -1.523438 11 -0.832031 10.25 -0.375 C 9.507812 0.0820312 8.554688 0.3125 7.390625 0.3125 Z M 7.390625 0.3125 "/></g></g><g transform="translate(637.465225, 532.306409)"><g><path d="M 7.5625 0.3125 C 6.457031 0.3125 5.445312 0.179688 4.53125 -0.078125 C 3.613281 -0.335938 2.828125 -0.691406 2.171875 -1.140625 C 1.523438 -1.597656 1.046875 -2.117188 0.734375 -2.703125 L 2.984375 -5.140625 L 3.296875 -5.140625 C 3.835938 -4.421875 4.472656 -3.878906 5.203125 -3.515625 C 5.929688 -3.148438 6.726562 -2.96875 7.59375 -2.96875 C 8.382812 -2.96875 8.976562 -3.109375 9.375 -3.390625 C 9.769531 -3.679688 9.96875 -4.085938 9.96875 -4.609375 C 9.96875 -5.023438 9.820312 -5.367188 9.53125 -5.640625 C 9.25 -5.921875 8.785156 -6.140625 8.140625 -6.296875 L 6 -6.8125 C 4.40625 -7.195312 3.238281 -7.78125 2.5 -8.5625 C 1.757812 -9.34375 1.390625 -10.34375 1.390625 -11.5625 C 1.390625 -12.5625 1.644531 -13.429688 2.15625 -14.171875 C 2.675781 -14.921875 3.398438 -15.488281 4.328125 -15.875 C 5.265625 -16.269531 6.351562 -16.46875 7.59375 -16.46875 C 9.039062 -16.46875 10.242188 -16.253906 11.203125 -15.828125 C 12.160156 -15.410156 12.910156 -14.851562 13.453125 -14.15625 L 11.28125 -11.8125 L 10.984375 -11.8125 C 10.535156 -12.3125 10.03125 -12.675781 9.46875 -12.90625 C 8.90625 -13.144531 8.28125 -13.265625 7.59375 -13.265625 C 5.988281 -13.265625 5.1875 -12.769531 5.1875 -11.78125 C 5.1875 -11.351562 5.332031 -11.007812 5.625 -10.75 C 5.925781 -10.488281 6.453125 -10.273438 7.203125 -10.109375 L 9.203125 -9.671875 C 10.835938 -9.316406 12.035156 -8.75 12.796875 -7.96875 C 13.554688 -7.195312 13.9375 -6.15625 13.9375 -4.84375 C 13.9375 -3.820312 13.679688 -2.921875 13.171875 -2.140625 C 12.660156 -1.359375 11.925781 -0.753906 10.96875 -0.328125 C 10.007812 0.0976562 8.875 0.3125 7.5625 0.3125 Z M 7.5625 0.3125 "/></g></g><g transform="translate(652.362685, 532.306409)"><g><path d="M 0.921875 2.75 C 1.597656 1.582031 2.175781 0.410156 2.65625 -0.765625 C 3.132812 -1.953125 3.515625 -3.289062 3.796875 -4.78125 C 4.085938 -6.28125 4.234375 -7.945312 4.234375 -9.78125 C 4.234375 -11.625 4.085938 -13.289062 3.796875 -14.78125 C 3.515625 -16.28125 3.132812 -17.617188 2.65625 -18.796875 C 2.1875 -19.984375 1.609375 -21.164062 0.921875 -22.34375 L 0.984375 -22.640625 L 4.09375 -22.640625 C 4.925781 -21.597656 5.664062 -20.492188 6.3125 -19.328125 C 6.957031 -18.160156 7.488281 -16.773438 7.90625 -15.171875 C 8.320312 -13.578125 8.53125 -11.78125 8.53125 -9.78125 C 8.53125 -6.90625 8.117188 -4.457031 7.296875 -2.4375 C 6.484375 -0.414062 5.414062 1.414062 4.09375 3.0625 L 0.984375 3.0625 Z M 0.921875 2.75 "/></g></g></g><g fill="#000000" fill-opacity="1"><g transform="translate(819.558665, 490.306411)"><g><path d="M 12.734375 0 L 7.625 0 L 0.375 -21.421875 L 4.875 -21.421875 L 10.078125 -5.453125 L 10.4375 -5.453125 L 15.578125 -21.421875 L 19.953125 -21.421875 Z M 12.734375 0 "/></g></g></g><g fill="#000000" fill-opacity="1"><g transform="translate(770.609448, 532.306409)"><g><path d="M 6.546875 3.0625 C 5.222656 1.414062 4.15625 -0.414062 3.34375 -2.4375 C 2.53125 -4.457031 2.125 -6.90625 2.125 -9.78125 C 2.125 -12.675781 2.53125 -15.132812 3.34375 -17.15625 C 4.15625 -19.175781 5.222656 -21.003906 6.546875 -22.640625 L 9.671875 -22.640625 L 9.734375 -22.34375 C 8.671875 -20.53125 7.851562 -18.648438 7.28125 -16.703125 C 6.707031 -14.765625 6.421875 -12.457031 6.421875 -9.78125 C 6.421875 -7.113281 6.707031 -4.804688 7.28125 -2.859375 C 7.851562 -0.921875 8.671875 0.945312 9.734375 2.75 L 9.671875 3.0625 Z M 6.546875 3.0625 "/></g></g><g transform="translate(781.258862, 532.306409)"><g><path d="M 12.734375 0 L 7.625 0 L 0.375 -21.421875 L 4.875 -21.421875 L 10.078125 -5.453125 L 10.4375 -5.453125 L 15.578125 -21.421875 L 19.953125 -21.421875 Z M 12.734375 0 "/></g></g><g transform="translate(801.590892, 532.306409)"><g><path d="M 9.390625 0.3125 C 7.804688 0.3125 6.414062 -0.0078125 5.21875 -0.65625 C 4.019531 -1.3125 3.09375 -2.265625 2.4375 -3.515625 C 1.78125 -4.773438 1.453125 -6.296875 1.453125 -8.078125 C 1.453125 -9.847656 1.78125 -11.363281 2.4375 -12.625 C 3.09375 -13.882812 4.019531 -14.835938 5.21875 -15.484375 C 6.414062 -16.140625 7.804688 -16.46875 9.390625 -16.46875 C 10.972656 -16.46875 12.363281 -16.140625 13.5625 -15.484375 C 14.757812 -14.835938 15.6875 -13.882812 16.34375 -12.625 C 17.007812 -11.363281 17.34375 -9.847656 17.34375 -8.078125 C 17.34375 -6.296875 17.007812 -4.773438 16.34375 -3.515625 C 15.6875 -2.265625 14.757812 -1.3125 13.5625 -0.65625 C 12.363281 -0.0078125 10.972656 0.3125 9.390625 0.3125 Z M 9.390625 -3.140625 C 11.898438 -3.140625 13.15625 -4.785156 13.15625 -8.078125 C 13.15625 -9.785156 12.832031 -11.035156 12.1875 -11.828125 C 11.539062 -12.617188 10.609375 -13.015625 9.390625 -13.015625 C 6.878906 -13.015625 5.625 -11.367188 5.625 -8.078125 C 5.625 -4.785156 6.878906 -3.140625 9.390625 -3.140625 Z M 9.390625 -3.140625 "/></g></g><g transform="translate(820.370188, 532.306409)"><g><path d="M 6.703125 0.3125 C 5.253906 0.3125 4.144531 -0.078125 3.375 -0.859375 C 2.613281 -1.648438 2.234375 -2.847656 2.234375 -4.453125 L 2.234375 -22.640625 L 6.28125 -22.640625 L 6.28125 -4.609375 C 6.28125 -3.628906 6.691406 -3.140625 7.515625 -3.140625 C 7.742188 -3.140625 7.992188 -3.175781 8.265625 -3.25 L 8.46875 -3.1875 L 8.828125 -0.078125 C 8.609375 0.046875 8.3125 0.140625 7.9375 0.203125 C 7.570312 0.273438 7.160156 0.3125 6.703125 0.3125 Z M 6.703125 0.3125 "/></g></g><g transform="translate(829.657297, 532.306409)"><g><path d="M 11.140625 -3.859375 L 12.203125 -0.84375 C 11.765625 -0.488281 11.210938 -0.207031 10.546875 0 C 9.878906 0.207031 9.128906 0.3125 8.296875 0.3125 C 6.546875 0.3125 5.210938 -0.160156 4.296875 -1.109375 C 3.390625 -2.066406 2.9375 -3.457031 2.9375 -5.28125 L 2.9375 -12.953125 L 0.484375 -12.953125 L 0.484375 -16.171875 L 2.9375 -16.171875 L 2.9375 -19.328125 L 7 -19.984375 L 7 -16.171875 L 11.59375 -16.171875 L 11.59375 -12.953125 L 7 -12.953125 L 7 -5.5625 C 7 -4.757812 7.164062 -4.175781 7.5 -3.8125 C 7.832031 -3.445312 8.316406 -3.265625 8.953125 -3.265625 C 9.671875 -3.265625 10.300781 -3.460938 10.84375 -3.859375 Z M 11.140625 -3.859375 "/></g></g><g transform="translate(842.211007, 532.306409)"><g><path d="M 6.296875 0.3125 C 5.265625 0.3125 4.367188 0.125 3.609375 -0.25 C 2.847656 -0.632812 2.257812 -1.195312 1.84375 -1.9375 C 1.4375 -2.675781 1.234375 -3.5625 1.234375 -4.59375 C 1.234375 -5.550781 1.4375 -6.351562 1.84375 -7 C 2.257812 -7.65625 2.894531 -8.191406 3.75 -8.609375 C 4.613281 -9.023438 5.738281 -9.34375 7.125 -9.5625 C 8.082031 -9.71875 8.8125 -9.890625 9.3125 -10.078125 C 9.820312 -10.265625 10.164062 -10.472656 10.34375 -10.703125 C 10.519531 -10.941406 10.609375 -11.242188 10.609375 -11.609375 C 10.609375 -12.117188 10.425781 -12.507812 10.0625 -12.78125 C 9.695312 -13.0625 9.097656 -13.203125 8.265625 -13.203125 C 7.367188 -13.203125 6.515625 -13 5.703125 -12.59375 C 4.890625 -12.195312 4.1875 -11.671875 3.59375 -11.015625 L 3.296875 -11.015625 L 1.59375 -13.578125 C 2.414062 -14.484375 3.414062 -15.191406 4.59375 -15.703125 C 5.78125 -16.210938 7.070312 -16.46875 8.46875 -16.46875 C 10.601562 -16.46875 12.148438 -16.007812 13.109375 -15.09375 C 14.066406 -14.1875 14.546875 -12.898438 14.546875 -11.234375 L 14.546875 -4.21875 C 14.546875 -3.5 14.863281 -3.140625 15.5 -3.140625 C 15.738281 -3.140625 15.976562 -3.179688 16.21875 -3.265625 L 16.421875 -3.203125 L 16.71875 -0.375 C 16.488281 -0.226562 16.171875 -0.109375 15.765625 -0.015625 C 15.367188 0.078125 14.929688 0.125 14.453125 0.125 C 13.492188 0.125 12.738281 -0.0625 12.1875 -0.4375 C 11.644531 -0.8125 11.257812 -1.394531 11.03125 -2.1875 L 10.71875 -2.21875 C 9.925781 -0.53125 8.453125 0.3125 6.296875 0.3125 Z M 7.59375 -2.71875 C 8.53125 -2.71875 9.273438 -3.03125 9.828125 -3.65625 C 10.390625 -4.289062 10.671875 -5.171875 10.671875 -6.296875 L 10.671875 -7.9375 L 10.40625 -8 C 10.15625 -7.800781 9.832031 -7.632812 9.4375 -7.5 C 9.039062 -7.375 8.472656 -7.25 7.734375 -7.125 C 6.859375 -6.976562 6.226562 -6.722656 5.84375 -6.359375 C 5.457031 -6.003906 5.265625 -5.5 5.265625 -4.84375 C 5.265625 -4.15625 5.46875 -3.628906 5.875 -3.265625 C 6.28125 -2.898438 6.851562 -2.71875 7.59375 -2.71875 Z M 7.59375 -2.71875 "/></g></g><g transform="translate(859.247139, 532.306409)"><g><path d="M 2.328125 0 L 2.328125 -16.15625 L 6.21875 -16.15625 L 6.21875 -13.78125 L 6.53125 -13.71875 C 7.539062 -15.550781 9.171875 -16.46875 11.421875 -16.46875 C 13.285156 -16.46875 14.65625 -15.957031 15.53125 -14.9375 C 16.40625 -13.925781 16.84375 -12.445312 16.84375 -10.5 L 16.84375 0 L 12.78125 0 L 12.78125 -10 C 12.78125 -11.070312 12.566406 -11.84375 12.140625 -12.3125 C 11.710938 -12.789062 11.023438 -13.03125 10.078125 -13.03125 C 8.910156 -13.03125 8.003906 -12.65625 7.359375 -11.90625 C 6.710938 -11.15625 6.390625 -9.972656 6.390625 -8.359375 L 6.390625 0 Z M 2.328125 0 "/></g></g><g transform="translate(878.17292, 532.306409)"><g><path d="M 0.921875 2.75 C 1.597656 1.582031 2.175781 0.410156 2.65625 -0.765625 C 3.132812 -1.953125 3.515625 -3.289062 3.796875 -4.78125 C 4.085938 -6.28125 4.234375 -7.945312 4.234375 -9.78125 C 4.234375 -11.625 4.085938 -13.289062 3.796875 -14.78125 C 3.515625 -16.28125 3.132812 -17.617188 2.65625 -18.796875 C 2.1875 -19.984375 1.609375 -21.164062 0.921875 -22.34375 L 0.984375 -22.640625 L 4.09375 -22.640625 C 4.925781 -21.597656 5.664062 -20.492188 6.3125 -19.328125 C 6.957031 -18.160156 7.488281 -16.773438 7.90625 -15.171875 C 8.320312 -13.578125 8.53125 -11.78125 8.53125 -9.78125 C 8.53125 -6.90625 8.117188 -4.457031 7.296875 -2.4375 C 6.484375 -0.414062 5.414062 1.414062 4.09375 3.0625 L 0.984375 3.0625 Z M 0.921875 2.75 "/></g></g></g><g fill="#000000" fill-opacity="1"><g transform="translate(710.484862, 277.996998)"><g><path d="M 11.0625 -21.421875 C 12.59375 -21.421875 13.898438 -21.140625 14.984375 -20.578125 C 16.078125 -20.015625 16.898438 -19.226562 17.453125 -18.21875 C 18.015625 -17.207031 18.296875 -16.03125 18.296875 -14.6875 C 18.296875 -13.351562 18.015625 -12.179688 17.453125 -11.171875 C 16.898438 -10.171875 16.078125 -9.390625 14.984375 -8.828125 C 13.898438 -8.265625 12.59375 -7.984375 11.0625 -7.984375 L 7.015625 -7.984375 L 7.015625 0 L 2.78125 0 L 2.78125 -21.421875 Z M 10.5 -11.34375 C 12.851562 -11.34375 14.03125 -12.457031 14.03125 -14.6875 C 14.03125 -16.9375 12.851562 -18.0625 10.5 -18.0625 L 7.015625 -18.0625 L 7.015625 -11.34375 Z M 10.5 -11.34375 "/></g></g></g><g fill="#000000" fill-opacity="1"><g transform="translate(665.895021, 319.996996)"><g><path d="M 6.546875 3.0625 C 5.222656 1.414062 4.15625 -0.414062 3.34375 -2.4375 C 2.53125 -4.457031 2.125 -6.90625 2.125 -9.78125 C 2.125 -12.675781 2.53125 -15.132812 3.34375 -17.15625 C 4.15625 -19.175781 5.222656 -21.003906 6.546875 -22.640625 L 9.671875 -22.640625 L 9.734375 -22.34375 C 8.671875 -20.53125 7.851562 -18.648438 7.28125 -16.703125 C 6.707031 -14.765625 6.421875 -12.457031 6.421875 -9.78125 C 6.421875 -7.113281 6.707031 -4.804688 7.28125 -2.859375 C 7.851562 -0.921875 8.671875 0.945312 9.734375 2.75 L 9.671875 3.0625 Z M 6.546875 3.0625 "/></g></g><g transform="translate(676.544434, 319.996996)"><g><path d="M 2.78125 0 L 2.78125 -21.421875 L 7.015625 -21.421875 L 7.015625 -12.671875 L 7.484375 -12.671875 L 14.640625 -21.421875 L 18.96875 -21.421875 L 18.96875 -21.046875 L 11.09375 -11.3125 L 19.796875 -0.359375 L 19.796875 0 L 15 0 L 7.484375 -9.25 L 7.015625 -9.25 L 7.015625 0 Z M 2.78125 0 "/></g></g><g transform="translate(696.334472, 319.996996)"><g><path d="M 7.390625 0.3125 C 5.578125 0.3125 4.238281 -0.179688 3.375 -1.171875 C 2.507812 -2.171875 2.078125 -3.597656 2.078125 -5.453125 L 2.078125 -16.15625 L 6.140625 -16.15625 L 6.140625 -5.96875 C 6.140625 -4.976562 6.347656 -4.253906 6.765625 -3.796875 C 7.191406 -3.347656 7.851562 -3.125 8.75 -3.125 C 9.875 -3.125 10.75 -3.488281 11.375 -4.21875 C 12 -4.957031 12.3125 -6.117188 12.3125 -7.703125 L 12.3125 -16.15625 L 16.359375 -16.15625 L 16.359375 0 L 12.46875 0 L 12.46875 -2.375 L 12.15625 -2.453125 C 11.632812 -1.523438 11 -0.832031 10.25 -0.375 C 9.507812 0.0820312 8.554688 0.3125 7.390625 0.3125 Z M 7.390625 0.3125 "/></g></g><g transform="translate(715.025878, 319.996996)"><g><path d="M 6.296875 0.3125 C 5.265625 0.3125 4.367188 0.125 3.609375 -0.25 C 2.847656 -0.632812 2.257812 -1.195312 1.84375 -1.9375 C 1.4375 -2.675781 1.234375 -3.5625 1.234375 -4.59375 C 1.234375 -5.550781 1.4375 -6.351562 1.84375 -7 C 2.257812 -7.65625 2.894531 -8.191406 3.75 -8.609375 C 4.613281 -9.023438 5.738281 -9.34375 7.125 -9.5625 C 8.082031 -9.71875 8.8125 -9.890625 9.3125 -10.078125 C 9.820312 -10.265625 10.164062 -10.472656 10.34375 -10.703125 C 10.519531 -10.941406 10.609375 -11.242188 10.609375 -11.609375 C 10.609375 -12.117188 10.425781 -12.507812 10.0625 -12.78125 C 9.695312 -13.0625 9.097656 -13.203125 8.265625 -13.203125 C 7.367188 -13.203125 6.515625 -13 5.703125 -12.59375 C 4.890625 -12.195312 4.1875 -11.671875 3.59375 -11.015625 L 3.296875 -11.015625 L 1.59375 -13.578125 C 2.414062 -14.484375 3.414062 -15.191406 4.59375 -15.703125 C 5.78125 -16.210938 7.070312 -16.46875 8.46875 -16.46875 C 10.601562 -16.46875 12.148438 -16.007812 13.109375 -15.09375 C 14.066406 -14.1875 14.546875 -12.898438 14.546875 -11.234375 L 14.546875 -4.21875 C 14.546875 -3.5 14.863281 -3.140625 15.5 -3.140625 C 15.738281 -3.140625 15.976562 -3.179688 16.21875 -3.265625 L 16.421875 -3.203125 L 16.71875 -0.375 C 16.488281 -0.226562 16.171875 -0.109375 15.765625 -0.015625 C 15.367188 0.078125 14.929688 0.125 14.453125 0.125 C 13.492188 0.125 12.738281 -0.0625 12.1875 -0.4375 C 11.644531 -0.8125 11.257812 -1.394531 11.03125 -2.1875 L 10.71875 -2.21875 C 9.925781 -0.53125 8.453125 0.3125 6.296875 0.3125 Z M 7.59375 -2.71875 C 8.53125 -2.71875 9.273438 -3.03125 9.828125 -3.65625 C 10.390625 -4.289062 10.671875 -5.171875 10.671875 -6.296875 L 10.671875 -7.9375 L 10.40625 -8 C 10.15625 -7.800781 9.832031 -7.632812 9.4375 -7.5 C 9.039062 -7.375 8.472656 -7.25 7.734375 -7.125 C 6.859375 -6.976562 6.226562 -6.722656 5.84375 -6.359375 C 5.457031 -6.003906 5.265625 -5.5 5.265625 -4.84375 C 5.265625 -4.15625 5.46875 -3.628906 5.875 -3.265625 C 6.28125 -2.898438 6.851562 -2.71875 7.59375 -2.71875 Z M 7.59375 -2.71875 "/></g></g><g transform="translate(732.06201, 319.996996)"><g><path d="M 7.5625 0.3125 C 6.457031 0.3125 5.445312 0.179688 4.53125 -0.078125 C 3.613281 -0.335938 2.828125 -0.691406 2.171875 -1.140625 C 1.523438 -1.597656 1.046875 -2.117188 0.734375 -2.703125 L 2.984375 -5.140625 L 3.296875 -5.140625 C 3.835938 -4.421875 4.472656 -3.878906 5.203125 -3.515625 C 5.929688 -3.148438 6.726562 -2.96875 7.59375 -2.96875 C 8.382812 -2.96875 8.976562 -3.109375 9.375 -3.390625 C 9.769531 -3.679688 9.96875 -4.085938 9.96875 -4.609375 C 9.96875 -5.023438 9.820312 -5.367188 9.53125 -5.640625 C 9.25 -5.921875 8.785156 -6.140625 8.140625 -6.296875 L 6 -6.8125 C 4.40625 -7.195312 3.238281 -7.78125 2.5 -8.5625 C 1.757812 -9.34375 1.390625 -10.34375 1.390625 -11.5625 C 1.390625 -12.5625 1.644531 -13.429688 2.15625 -14.171875 C 2.675781 -14.921875 3.398438 -15.488281 4.328125 -15.875 C 5.265625 -16.269531 6.351562 -16.46875 7.59375 -16.46875 C 9.039062 -16.46875 10.242188 -16.253906 11.203125 -15.828125 C 12.160156 -15.410156 12.910156 -14.851562 13.453125 -14.15625 L 11.28125 -11.8125 L 10.984375 -11.8125 C 10.535156 -12.3125 10.03125 -12.675781 9.46875 -12.90625 C 8.90625 -13.144531 8.28125 -13.265625 7.59375 -13.265625 C 5.988281 -13.265625 5.1875 -12.769531 5.1875 -11.78125 C 5.1875 -11.351562 5.332031 -11.007812 5.625 -10.75 C 5.925781 -10.488281 6.453125 -10.273438 7.203125 -10.109375 L 9.203125 -9.671875 C 10.835938 -9.316406 12.035156 -8.75 12.796875 -7.96875 C 13.554688 -7.195312 13.9375 -6.15625 13.9375 -4.84375 C 13.9375 -3.820312 13.679688 -2.921875 13.171875 -2.140625 C 12.660156 -1.359375 11.925781 -0.753906 10.96875 -0.328125 C 10.007812 0.0976562 8.875 0.3125 7.5625 0.3125 Z M 7.5625 0.3125 "/></g></g><g transform="translate(746.95947, 319.996996)"><g><path d="M 6.296875 0.3125 C 5.265625 0.3125 4.367188 0.125 3.609375 -0.25 C 2.847656 -0.632812 2.257812 -1.195312 1.84375 -1.9375 C 1.4375 -2.675781 1.234375 -3.5625 1.234375 -4.59375 C 1.234375 -5.550781 1.4375 -6.351562 1.84375 -7 C 2.257812 -7.65625 2.894531 -8.191406 3.75 -8.609375 C 4.613281 -9.023438 5.738281 -9.34375 7.125 -9.5625 C 8.082031 -9.71875 8.8125 -9.890625 9.3125 -10.078125 C 9.820312 -10.265625 10.164062 -10.472656 10.34375 -10.703125 C 10.519531 -10.941406 10.609375 -11.242188 10.609375 -11.609375 C 10.609375 -12.117188 10.425781 -12.507812 10.0625 -12.78125 C 9.695312 -13.0625 9.097656 -13.203125 8.265625 -13.203125 C 7.367188 -13.203125 6.515625 -13 5.703125 -12.59375 C 4.890625 -12.195312 4.1875 -11.671875 3.59375 -11.015625 L 3.296875 -11.015625 L 1.59375 -13.578125 C 2.414062 -14.484375 3.414062 -15.191406 4.59375 -15.703125 C 5.78125 -16.210938 7.070312 -16.46875 8.46875 -16.46875 C 10.601562 -16.46875 12.148438 -16.007812 13.109375 -15.09375 C 14.066406 -14.1875 14.546875 -12.898438 14.546875 -11.234375 L 14.546875 -4.21875 C 14.546875 -3.5 14.863281 -3.140625 15.5 -3.140625 C 15.738281 -3.140625 15.976562 -3.179688 16.21875 -3.265625 L 16.421875 -3.203125 L 16.71875 -0.375 C 16.488281 -0.226562 16.171875 -0.109375 15.765625 -0.015625 C 15.367188 0.078125 14.929688 0.125 14.453125 0.125 C 13.492188 0.125 12.738281 -0.0625 12.1875 -0.4375 C 11.644531 -0.8125 11.257812 -1.394531 11.03125 -2.1875 L 10.71875 -2.21875 C 9.925781 -0.53125 8.453125 0.3125 6.296875 0.3125 Z M 7.59375 -2.71875 C 8.53125 -2.71875 9.273438 -3.03125 9.828125 -3.65625 C 10.390625 -4.289062 10.671875 -5.171875 10.671875 -6.296875 L 10.671875 -7.9375 L 10.40625 -8 C 10.15625 -7.800781 9.832031 -7.632812 9.4375 -7.5 C 9.039062 -7.375 8.472656 -7.25 7.734375 -7.125 C 6.859375 -6.976562 6.226562 -6.722656 5.84375 -6.359375 C 5.457031 -6.003906 5.265625 -5.5 5.265625 -4.84375 C 5.265625 -4.15625 5.46875 -3.628906 5.875 -3.265625 C 6.28125 -2.898438 6.851562 -2.71875 7.59375 -2.71875 Z M 7.59375 -2.71875 "/></g></g><g transform="translate(763.995602, 319.996996)"><g><path d="M 0.921875 2.75 C 1.597656 1.582031 2.175781 0.410156 2.65625 -0.765625 C 3.132812 -1.953125 3.515625 -3.289062 3.796875 -4.78125 C 4.085938 -6.28125 4.234375 -7.945312 4.234375 -9.78125 C 4.234375 -11.625 4.085938 -13.289062 3.796875 -14.78125 C 3.515625 -16.28125 3.132812 -17.617188 2.65625 -18.796875 C 2.1875 -19.984375 1.609375 -21.164062 0.921875 -22.34375 L 0.984375 -22.640625 L 4.09375 -22.640625 C 4.925781 -21.597656 5.664062 -20.492188 6.3125 -19.328125 C 6.957031 -18.160156 7.488281 -16.773438 7.90625 -15.171875 C 8.320312 -13.578125 8.53125 -11.78125 8.53125 -9.78125 C 8.53125 -6.90625 8.117188 -4.457031 7.296875 -2.4375 C 6.484375 -0.414062 5.414062 1.414062 4.09375 3.0625 L 0.984375 3.0625 Z M 0.921875 2.75 "/></g></g></g></svg>