<svg xmlns="http://www.w3.org/2000/svg" xmlns:xlink="http://www.w3.org/1999/xlink" width="1920" zoomAndPan="magnify" viewBox="0 0 1440 809.999993" height="1080" preserveAspectRatio="xMidYMid meet" version="1.0"><defs><g/><clipPath id="d89615ca73"><path d="M 440.417969 123.726562 L 999.914062 123.726562 L 999.914062 613.476562 L 440.417969 613.476562 Z M 440.417969 123.726562 " clip-rule="nonzero"/></clipPath><clipPath id="984bdccca8"><path d="M 720.277344 123.726562 L 1000.132812 613.476562 L 440.417969 613.476562 Z M 720.277344 123.726562 " clip-rule="nonzero"/></clipPath></defs><g clip-path="url(#d89615ca73)"><g clip-path="url(#984bdccca8)"><path stroke-linecap="butt" transform="matrix(0.75, 0, 0, 0.75, 440.41856, 123.725493)" fill="none" stroke-linejoin="miter" d="M 373.145064 0.00142603 L 746.285707 653.001459 L -0.000788421 653.001459 Z M 373.145064 0.00142603 " stroke="#000000" stroke-width="8" stroke-opacity="1" stroke-miterlimit="4"/></g></g><path stroke-linecap="butt" transform="matrix(0.75, -0.000000000000000093, 0.000000000000000093, 0.75, 569.361482, 386.326436)" fill="none" stroke-linejoin="miter" d="M 0.00239956 2.002252 L 401.700336 2.002252 " stroke="#000000" stroke-width="4" stroke-opacity="1" stroke-miterlimit="4"/><path stroke-linecap="butt" transform="matrix(-0.000924687, -0.749999, 0.749999, -0.000924687, 718.775658, 613.485037)" fill="none" stroke-linejoin="miter" d="M -0.00158576 2.002247 L 298.878869 2.00095 " stroke="#000000" stroke-width="4" stroke-opacity="1" stroke-miterlimit="4"/><g fill="#000000" fill-opacity="1"><g transform="translate(528.372457, 490.306411)"><g><path d="M 2.78125 0 L 2.78125 -21.421875 L 7.015625 -21.421875 L 7.015625 -12.671875 L 7.484375 -12.671875 L 14.640625 -21.421875 L 18.96875 -21.421875 L 18.96875 -21.046875 L 11.09375 -11.3125 L 19.796875 -0.359375 L 19.796875 0 L 15 0 L 7.484375 -9.25 L 7.015625 -9.25 L 7.015625 0 Z M 2.78125 0 "/></g></g></g><g fill="#000000" fill-opacity="1"><g transform="translate(547.73769, 490.306411)"><g><path d="M 15.96875 -7.15625 L 5.578125 -7.15625 C 5.691406 -5.75 6.09375 -4.726562 6.78125 -4.09375 C 7.46875 -3.457031 8.398438 -3.140625 9.578125 -3.140625 C 10.503906 -3.140625 11.253906 -3.3125 11.828125 -3.65625 C 12.410156 -4 12.878906 -4.523438 13.234375 -5.234375 L 13.53125 -5.234375 L 16.234375 -3.5 C 15.703125 -2.363281 14.90625 -1.441406 13.84375 -0.734375 C 12.78125 -0.0351562 11.359375 0.3125 9.578125 0.3125 C 7.910156 0.3125 6.46875 -0.00390625 5.25 -0.640625 C 4.03125 -1.273438 3.09375 -2.21875 2.4375 -3.46875 C 1.78125 -4.726562 1.453125 -6.265625 1.453125 -8.078125 C 1.453125 -9.910156 1.796875 -11.457031 2.484375 -12.71875 C 3.179688 -13.976562 4.117188 -14.914062 5.296875 -15.53125 C 6.484375 -16.15625 7.8125 -16.46875 9.28125 -16.46875 C 11.570312 -16.46875 13.320312 -15.859375 14.53125 -14.640625 C 15.75 -13.429688 16.359375 -11.65625 16.359375 -9.3125 C 16.359375 -8.46875 16.332031 -7.8125 16.28125 -7.34375 Z M 12.484375 -9.78125 C 12.441406 -11.007812 12.15625 -11.90625 11.625 -12.46875 C 11.09375 -13.03125 10.3125 -13.3125 9.28125 -13.3125 C 7.238281 -13.3125 6.035156 -12.132812 5.671875 -9.78125 Z M 12.484375 -9.78125 "/></g></g><g transform="translate(565.301166, 490.306411)"><g><path d="M 11.140625 -3.859375 L 12.203125 -0.84375 C 11.765625 -0.488281 11.210938 -0.207031 10.546875 0 C 9.878906 0.207031 9.128906 0.3125 8.296875 0.3125 C 6.546875 0.3125 5.210938 -0.160156 4.296875 -1.109375 C 3.390625 -2.066406 2.9375 -3.457031 2.9375 -5.28125 L 2.9375 -12.953125 L 0.484375 -12.953125 L 0.484375 -16.171875 L 2.9375 -16.171875 L 2.9375 -19.328125 L 7 -19.984375 L 7 -16.171875 L 11.59375 -16.171875 L 11.59375 -12.953125 L 7 -12.953125 L 7 -5.5625 C 7 -4.757812 7.164062 -4.175781 7.5 -3.8125 C 7.832031 -3.445312 8.316406 -3.265625 8.953125 -3.265625 C 9.671875 -3.265625 10.300781 -3.460938 10.84375 -3.859375 Z M 11.140625 -3.859375 "/></g></g><g transform="translate(577.854876, 490.306411)"><g><path d="M 7.390625 0.3125 C 5.578125 0.3125 4.238281 -0.179688 3.375 -1.171875 C 2.507812 -2.171875 2.078125 -3.597656 2.078125 -5.453125 L 2.078125 -16.15625 L 6.140625 -16.15625 L 6.140625 -5.96875 C 6.140625 -4.976562 6.347656 -4.253906 6.765625 -3.796875 C 7.191406 -3.347656 7.851562 -3.125 8.75 -3.125 C 9.875 -3.125 10.75 -3.488281 11.375 -4.21875 C 12 -4.957031 12.3125 -6.117188 12.3125 -7.703125 L 12.3125 -16.15625 L 16.359375 -16.15625 L 16.359375 0 L 12.46875 0 L 12.46875 -2.375 L 12.15625 -2.453125 C 11.632812 -1.523438 11 -0.832031 10.25 -0.375 C 9.507812 0.0820312 8.554688 0.3125 7.390625 0.3125 Z M 7.390625 0.3125 "/></g></g><g transform="translate(596.546282, 490.306411)"><g><path d="M 2.328125 0 L 2.328125 -16.15625 L 6.21875 -16.15625 L 6.21875 -13.984375 L 6.53125 -13.9375 C 7.0625 -14.800781 7.679688 -15.4375 8.390625 -15.84375 C 9.097656 -16.257812 10.003906 -16.46875 11.109375 -16.46875 C 12.328125 -16.46875 13.304688 -16.222656 14.046875 -15.734375 C 14.785156 -15.253906 15.328125 -14.550781 15.671875 -13.625 L 15.984375 -13.625 C 16.484375 -14.59375 17.125 -15.304688 17.90625 -15.765625 C 18.695312 -16.234375 19.675781 -16.46875 20.84375 -16.46875 C 24.195312 -16.46875 25.875 -14.601562 25.875 -10.875 L 25.875 0 L 21.8125 0 L 21.8125 -10.359375 C 21.8125 -11.304688 21.625 -11.988281 21.25 -12.40625 C 20.882812 -12.820312 20.289062 -13.03125 19.46875 -13.03125 C 17.238281 -13.03125 16.125 -11.539062 16.125 -8.5625 L 16.125 0 L 12.078125 0 L 12.078125 -10.359375 C 12.078125 -11.304688 11.882812 -11.988281 11.5 -12.40625 C 11.125 -12.820312 10.53125 -13.03125 9.71875 -13.03125 C 8.664062 -13.03125 7.847656 -12.679688 7.265625 -11.984375 C 6.679688 -11.285156 6.390625 -10.175781 6.390625 -8.65625 L 6.390625 0 Z M 2.328125 0 "/></g></g><g transform="translate(624.495499, 490.306411)"><g><path d="M 2.328125 6.546875 L 2.328125 -16.15625 L 6.390625 -16.15625 L 6.390625 -14.046875 L 6.6875 -13.984375 C 7.164062 -14.804688 7.804688 -15.425781 8.609375 -15.84375 C 9.410156 -16.257812 10.347656 -16.46875 11.421875 -16.46875 C 12.722656 -16.46875 13.859375 -16.160156 14.828125 -15.546875 C 15.804688 -14.929688 16.566406 -13.992188 17.109375 -12.734375 C 17.648438 -11.484375 17.921875 -9.929688 17.921875 -8.078125 C 17.921875 -6.222656 17.632812 -4.671875 17.0625 -3.421875 C 16.488281 -2.171875 15.691406 -1.234375 14.671875 -0.609375 C 13.660156 0.00390625 12.488281 0.3125 11.15625 0.3125 C 10.15625 0.3125 9.285156 0.144531 8.546875 -0.1875 C 7.816406 -0.53125 7.195312 -1.054688 6.6875 -1.765625 L 6.390625 -1.71875 L 6.390625 6.546875 Z M 10.03125 -3.140625 C 11.238281 -3.140625 12.15625 -3.535156 12.78125 -4.328125 C 13.40625 -5.117188 13.71875 -6.367188 13.71875 -8.078125 C 13.71875 -9.785156 13.40625 -11.035156 12.78125 -11.828125 C 12.15625 -12.617188 11.238281 -13.015625 10.03125 -13.015625 C 8.894531 -13.015625 7.992188 -12.601562 7.328125 -11.78125 C 6.671875 -10.96875 6.34375 -9.734375 6.34375 -8.078125 C 6.34375 -6.421875 6.671875 -5.179688 7.328125 -4.359375 C 7.992188 -3.546875 8.894531 -3.140625 10.03125 -3.140625 Z M 10.03125 -3.140625 "/></g></g><g transform="translate(643.846084, 490.306411)"><g><path d="M 6.296875 0.3125 C 5.265625 0.3125 4.367188 0.125 3.609375 -0.25 C 2.847656 -0.632812 2.257812 -1.195312 1.84375 -1.9375 C 1.4375 -2.675781 1.234375 -3.5625 1.234375 -4.59375 C 1.234375 -5.550781 1.4375 -6.351562 1.84375 -7 C 2.257812 -7.65625 2.894531 -8.191406 3.75 -8.609375 C 4.613281 -9.023438 5.738281 -9.34375 7.125 -9.5625 C 8.082031 -9.71875 8.8125 -9.890625 9.3125 -10.078125 C 9.820312 -10.265625 10.164062 -10.472656 10.34375 -10.703125 C 10.519531 -10.941406 10.609375 -11.242188 10.609375 -11.609375 C 10.609375 -12.117188 10.425781 -12.507812 10.0625 -12.78125 C 9.695312 -13.0625 9.097656 -13.203125 8.265625 -13.203125 C 7.367188 -13.203125 6.515625 -13 5.703125 -12.59375 C 4.890625 -12.195312 4.1875 -11.671875 3.59375 -11.015625 L 3.296875 -11.015625 L 1.59375 -13.578125 C 2.414062 -14.484375 3.414062 -15.191406 4.59375 -15.703125 C 5.78125 -16.210938 7.070312 -16.46875 8.46875 -16.46875 C 10.601562 -16.46875 12.148438 -16.007812 13.109375 -15.09375 C 14.066406 -14.1875 14.546875 -12.898438 14.546875 -11.234375 L 14.546875 -4.21875 C 14.546875 -3.5 14.863281 -3.140625 15.5 -3.140625 C 15.738281 -3.140625 15.976562 -3.179688 16.21875 -3.265625 L 16.421875 -3.203125 L 16.71875 -0.375 C 16.488281 -0.226562 16.171875 -0.109375 15.765625 -0.015625 C 15.367188 0.078125 14.929688 0.125 14.453125 0.125 C 13.492188 0.125 12.738281 -0.0625 12.1875 -0.4375 C 11.644531 -0.8125 11.257812 -1.394531 11.03125 -2.1875 L 10.71875 -2.21875 C 9.925781 -0.53125 8.453125 0.3125 6.296875 0.3125 Z M 7.59375 -2.71875 C 8.53125 -2.71875 9.273438 -3.03125 9.828125 -3.65625 C 10.390625 -4.289062 10.671875 -5.171875 10.671875 -6.296875 L 10.671875 -7.9375 L 10.40625 -8 C 10.15625 -7.800781 9.832031 -7.632812 9.4375 -7.5 C 9.039062 -7.375 8.472656 -7.25 7.734375 -7.125 C 6.859375 -6.976562 6.226562 -6.722656 5.84375 -6.359375 C 5.457031 -6.003906 5.265625 -5.5 5.265625 -4.84375 C 5.265625 -4.15625 5.46875 -3.628906 5.875 -3.265625 C 6.28125 -2.898438 6.851562 -2.71875 7.59375 -2.71875 Z M 7.59375 -2.71875 "/></g></g></g><g fill="#000000" fill-opacity="1"><g transform="translate(660.691786, 490.306411)"><g><path d="M 11.140625 -3.859375 L 12.203125 -0.84375 C 11.765625 -0.488281 11.210938 -0.207031 10.546875 0 C 9.878906 0.207031 9.128906 0.3125 8.296875 0.3125 C 6.546875 0.3125 5.210938 -0.160156 4.296875 -1.109375 C 3.390625 -2.066406 2.9375 -3.457031 2.9375 -5.28125 L 2.9375 -12.953125 L 0.484375 -12.953125 L 0.484375 -16.171875 L 2.9375 -16.171875 L 2.9375 -19.328125 L 7 -19.984375 L 7 -16.171875 L 11.59375 -16.171875 L 11.59375 -12.953125 L 7 -12.953125 L 7 -5.5625 C 7 -4.757812 7.164062 -4.175781 7.5 -3.8125 C 7.832031 -3.445312 8.316406 -3.265625 8.953125 -3.265625 C 9.671875 -3.265625 10.300781 -3.460938 10.84375 -3.859375 Z M 11.140625 -3.859375 "/></g></g><g transform="translate(673.245497, 490.306411)"><g><path d="M 6.296875 0.3125 C 5.265625 0.3125 4.367188 0.125 3.609375 -0.25 C 2.847656 -0.632812 2.257812 -1.195312 1.84375 -1.9375 C 1.4375 -2.675781 1.234375 -3.5625 1.234375 -4.59375 C 1.234375 -5.550781 1.4375 -6.351562 1.84375 -7 C 2.257812 -7.65625 2.894531 -8.191406 3.75 -8.609375 C 4.613281 -9.023438 5.738281 -9.34375 7.125 -9.5625 C 8.082031 -9.71875 8.8125 -9.890625 9.3125 -10.078125 C 9.820312 -10.265625 10.164062 -10.472656 10.34375 -10.703125 C 10.519531 -10.941406 10.609375 -11.242188 10.609375 -11.609375 C 10.609375 -12.117188 10.425781 -12.507812 10.0625 -12.78125 C 9.695312 -13.0625 9.097656 -13.203125 8.265625 -13.203125 C 7.367188 -13.203125 6.515625 -13 5.703125 -12.59375 C 4.890625 -12.195312 4.1875 -11.671875 3.59375 -11.015625 L 3.296875 -11.015625 L 1.59375 -13.578125 C 2.414062 -14.484375 3.414062 -15.191406 4.59375 -15.703125 C 5.78125 -16.210938 7.070312 -16.46875 8.46875 -16.46875 C 10.601562 -16.46875 12.148438 -16.007812 13.109375 -15.09375 C 14.066406 -14.1875 14.546875 -12.898438 14.546875 -11.234375 L 14.546875 -4.21875 C 14.546875 -3.5 14.863281 -3.140625 15.5 -3.140625 C 15.738281 -3.140625 15.976562 -3.179688 16.21875 -3.265625 L 16.421875 -3.203125 L 16.71875 -0.375 C 16.488281 -0.226562 16.171875 -0.109375 15.765625 -0.015625 C 15.367188 0.078125 14.929688 0.125 14.453125 0.125 C 13.492188 0.125 12.738281 -0.0625 12.1875 -0.4375 C 11.644531 -0.8125 11.257812 -1.394531 11.03125 -2.1875 L 10.71875 -2.21875 C 9.925781 -0.53125 8.453125 0.3125 6.296875 0.3125 Z M 7.59375 -2.71875 C 8.53125 -2.71875 9.273438 -3.03125 9.828125 -3.65625 C 10.390625 -4.289062 10.671875 -5.171875 10.671875 -6.296875 L 10.671875 -7.9375 L 10.40625 -8 C 10.15625 -7.800781 9.832031 -7.632812 9.4375 -7.5 C 9.039062 -7.375 8.472656 -7.25 7.734375 -7.125 C 6.859375 -6.976562 6.226562 -6.722656 5.84375 -6.359375 C 5.457031 -6.003906 5.265625 -5.5 5.265625 -4.84375 C 5.265625 -4.15625 5.46875 -3.628906 5.875 -3.265625 C 6.28125 -2.898438 6.851562 -2.71875 7.59375 -2.71875 Z M 7.59375 -2.71875 "/></g></g><g transform="translate(690.281629, 490.306411)"><g><path d="M 2.328125 0 L 2.328125 -16.15625 L 6.21875 -16.15625 L 6.21875 -13.78125 L 6.53125 -13.71875 C 7.539062 -15.550781 9.171875 -16.46875 11.421875 -16.46875 C 13.285156 -16.46875 14.65625 -15.957031 15.53125 -14.9375 C 16.40625 -13.925781 16.84375 -12.445312 16.84375 -10.5 L 16.84375 0 L 12.78125 0 L 12.78125 -10 C 12.78125 -11.070312 12.566406 -11.84375 12.140625 -12.3125 C 11.710938 -12.789062 11.023438 -13.03125 10.078125 -13.03125 C 8.910156 -13.03125 8.003906 -12.65625 7.359375 -11.90625 C 6.710938 -11.15625 6.390625 -9.972656 6.390625 -8.359375 L 6.390625 0 Z M 2.328125 0 "/></g></g></g><g fill="#000000" fill-opacity="1"><g transform="translate(558.735736, 532.306409)"><g><path d="M 6.546875 3.0625 C 5.222656 1.414062 4.15625 -0.414062 3.34375 -2.4375 C 2.53125 -4.457031 2.125 -6.90625 2.125 -9.78125 C 2.125 -12.675781 2.53125 -15.132812 3.34375 -17.15625 C 4.15625 -19.175781 5.222656 -21.003906 6.546875 -22.640625 L 9.671875 -22.640625 L 9.734375 -22.34375 C 8.671875 -20.53125 7.851562 -18.648438 7.28125 -16.703125 C 6.707031 -14.765625 6.421875 -12.457031 6.421875 -9.78125 C 6.421875 -7.113281 6.707031 -4.804688 7.28125 -2.859375 C 7.851562 -0.921875 8.671875 0.945312 9.734375 2.75 L 9.671875 3.0625 Z M 6.546875 3.0625 "/></g></g><g transform="translate(569.38515, 532.306409)"><g><path d="M 8.375 6.859375 C 5.707031 6.859375 3.738281 6.46875 2.46875 5.6875 C 1.207031 4.90625 0.578125 3.816406 0.578125 2.421875 C 0.578125 1.566406 0.847656 0.867188 1.390625 0.328125 C 1.929688 -0.210938 2.707031 -0.578125 3.71875 -0.765625 L 3.71875 -1.0625 C 3.175781 -1.394531 2.785156 -1.765625 2.546875 -2.171875 C 2.304688 -2.578125 2.1875 -3.050781 2.1875 -3.59375 C 2.1875 -4.882812 3.03125 -5.757812 4.71875 -6.21875 L 4.71875 -6.515625 C 3.84375 -7.015625 3.1875 -7.632812 2.75 -8.375 C 2.3125 -9.113281 2.09375 -10.003906 2.09375 -11.046875 C 2.09375 -12.117188 2.335938 -13.0625 2.828125 -13.875 C 3.328125 -14.695312 4.050781 -15.332031 5 -15.78125 C 5.957031 -16.238281 7.097656 -16.46875 8.421875 -16.46875 C 9.765625 -16.46875 10.835938 -16.234375 11.640625 -15.765625 C 12.140625 -16.484375 12.429688 -17.316406 12.515625 -18.265625 L 12.8125 -18.453125 L 15.734375 -17.734375 C 15.640625 -16.960938 15.410156 -16.316406 15.046875 -15.796875 C 14.691406 -15.273438 14.132812 -14.8125 13.375 -14.40625 L 13.375 -14.078125 C 14.28125 -13.273438 14.734375 -12.15625 14.734375 -10.71875 C 14.734375 -9.726562 14.484375 -8.835938 13.984375 -8.046875 C 13.492188 -7.253906 12.769531 -6.628906 11.8125 -6.171875 C 10.863281 -5.710938 9.734375 -5.484375 8.421875 -5.484375 L 7.8125 -5.5 C 7.414062 -5.507812 7.140625 -5.515625 6.984375 -5.515625 C 6.617188 -5.515625 6.328125 -5.414062 6.109375 -5.21875 C 5.898438 -5.019531 5.796875 -4.765625 5.796875 -4.453125 C 5.796875 -4.109375 5.929688 -3.84375 6.203125 -3.65625 C 6.484375 -3.46875 6.882812 -3.363281 7.40625 -3.34375 L 11.03125 -3.203125 C 14.601562 -3.097656 16.390625 -1.5625 16.390625 1.40625 C 16.390625 2.445312 16.125 3.375 15.59375 4.1875 C 15.0625 5.007812 14.195312 5.660156 13 6.140625 C 11.8125 6.617188 10.269531 6.859375 8.375 6.859375 Z M 8.421875 -8.328125 C 9.203125 -8.328125 9.8125 -8.554688 10.25 -9.015625 C 10.6875 -9.472656 10.90625 -10.125 10.90625 -10.96875 C 10.90625 -11.820312 10.6875 -12.472656 10.25 -12.921875 C 9.8125 -13.378906 9.203125 -13.609375 8.421875 -13.609375 C 7.628906 -13.609375 7.019531 -13.378906 6.59375 -12.921875 C 6.164062 -12.472656 5.953125 -11.820312 5.953125 -10.96875 C 5.953125 -10.113281 6.164062 -9.457031 6.59375 -9 C 7.019531 -8.550781 7.628906 -8.328125 8.421875 -8.328125 Z M 8.375 3.90625 C 9.757812 3.90625 10.765625 3.707031 11.390625 3.3125 C 12.023438 2.925781 12.34375 2.421875 12.34375 1.796875 C 12.34375 1.296875 12.179688 0.925781 11.859375 0.6875 C 11.535156 0.445312 11.023438 0.316406 10.328125 0.296875 L 7.140625 0.140625 C 7.023438 0.140625 6.921875 0.132812 6.828125 0.125 C 6.734375 0.125 6.644531 0.125 6.5625 0.125 C 5.875 0.125 5.351562 0.269531 5 0.5625 C 4.644531 0.851562 4.46875 1.253906 4.46875 1.765625 C 4.46875 2.453125 4.796875 2.976562 5.453125 3.34375 C 6.109375 3.71875 7.082031 3.90625 8.375 3.90625 Z M 8.375 3.90625 "/></g></g><g transform="translate(586.186907, 532.306409)"><g/></g><g transform="translate(593.262102, 532.306409)"><g><path d="M 3.9375 3.0625 L 0.09375 3.0625 L 8.078125 -22.640625 L 11.9375 -22.640625 Z M 3.9375 3.0625 "/></g></g><g transform="translate(605.845109, 532.306409)"><g/></g><g transform="translate(612.920304, 532.306409)"><g><path d="M 9.421875 0.3125 C 7.859375 0.3125 6.472656 -0.0078125 5.265625 -0.65625 C 4.066406 -1.3125 3.128906 -2.269531 2.453125 -3.53125 C 1.785156 -4.789062 1.453125 -6.304688 1.453125 -8.078125 C 1.453125 -9.847656 1.785156 -11.363281 2.453125 -12.625 C 3.128906 -13.882812 4.0625 -14.835938 5.25 -15.484375 C 6.445312 -16.140625 7.8125 -16.46875 9.34375 -16.46875 C 12.75 -16.46875 14.929688 -15.234375 15.890625 -12.765625 L 13.109375 -10.765625 L 12.796875 -10.765625 C 12.472656 -11.523438 12.039062 -12.085938 11.5 -12.453125 C 10.96875 -12.828125 10.25 -13.015625 9.34375 -13.015625 C 8.175781 -13.015625 7.265625 -12.609375 6.609375 -11.796875 C 5.953125 -10.992188 5.625 -9.753906 5.625 -8.078125 C 5.625 -6.410156 5.957031 -5.171875 6.625 -4.359375 C 7.289062 -3.546875 8.222656 -3.140625 9.421875 -3.140625 C 10.296875 -3.140625 11.035156 -3.375 11.640625 -3.84375 C 12.253906 -4.320312 12.695312 -5.003906 12.96875 -5.890625 L 13.265625 -5.921875 L 16.15625 -4.34375 C 15.75 -2.96875 14.988281 -1.847656 13.875 -0.984375 C 12.769531 -0.117188 11.285156 0.3125 9.421875 0.3125 Z M 9.421875 0.3125 "/></g></g><g transform="translate(629.575576, 532.306409)"><g><path d="M 2.328125 0 L 2.328125 -16.15625 L 6.21875 -16.15625 L 6.21875 -13.984375 L 6.53125 -13.9375 C 7.0625 -14.800781 7.679688 -15.4375 8.390625 -15.84375 C 9.097656 -16.257812 10.003906 -16.46875 11.109375 -16.46875 C 12.328125 -16.46875 13.304688 -16.222656 14.046875 -15.734375 C 14.785156 -15.253906 15.328125 -14.550781 15.671875 -13.625 L 15.984375 -13.625 C 16.484375 -14.59375 17.125 -15.304688 17.90625 -15.765625 C 18.695312 -16.234375 19.675781 -16.46875 20.84375 -16.46875 C 24.195312 -16.46875 25.875 -14.601562 25.875 -10.875 L 25.875 0 L 21.8125 0 L 21.8125 -10.359375 C 21.8125 -11.304688 21.625 -11.988281 21.25 -12.40625 C 20.882812 -12.820312 20.289062 -13.03125 19.46875 -13.03125 C 17.238281 -13.03125 16.125 -11.539062 16.125 -8.5625 L 16.125 0 L 12.078125 0 L 12.078125 -10.359375 C 12.078125 -11.304688 11.882812 -11.988281 11.5 -12.40625 C 11.125 -12.820312 10.53125 -13.03125 9.71875 -13.03125 C 8.664062 -13.03125 7.847656 -12.679688 7.265625 -11.984375 C 6.679688 -11.285156 6.390625 -10.175781 6.390625 -8.65625 L 6.390625 0 Z M 2.328125 0 "/></g></g><g transform="translate(657.524794, 532.306409)"><g><path d="M 5.15625 -11.6875 C 3.84375 -11.6875 2.800781 -11.953125 2.03125 -12.484375 C 1.269531 -13.015625 0.785156 -13.757812 0.578125 -14.71875 L 2.796875 -15.734375 L 3.078125 -15.671875 C 3.285156 -15.234375 3.539062 -14.898438 3.84375 -14.671875 C 4.15625 -14.441406 4.566406 -14.328125 5.078125 -14.328125 C 5.535156 -14.328125 5.898438 -14.429688 6.171875 -14.640625 C 6.453125 -14.847656 6.59375 -15.164062 6.59375 -15.59375 C 6.59375 -16.445312 6.046875 -16.875 4.953125 -16.875 L 3.359375 -16.875 L 3.359375 -18.9375 L 4.765625 -18.9375 C 5.234375 -18.9375 5.585938 -19.03125 5.828125 -19.21875 C 6.078125 -19.414062 6.203125 -19.695312 6.203125 -20.0625 C 6.203125 -20.40625 6.09375 -20.671875 5.875 -20.859375 C 5.65625 -21.054688 5.320312 -21.15625 4.875 -21.15625 C 3.945312 -21.15625 3.222656 -20.78125 2.703125 -20.03125 L 2.453125 -20 L 0.984375 -21.765625 C 1.390625 -22.296875 1.945312 -22.726562 2.65625 -23.0625 C 3.363281 -23.394531 4.238281 -23.5625 5.28125 -23.5625 C 6.582031 -23.5625 7.566406 -23.304688 8.234375 -22.796875 C 8.910156 -22.285156 9.25 -21.585938 9.25 -20.703125 C 9.25 -19.628906 8.769531 -18.820312 7.8125 -18.28125 L 7.8125 -18.03125 C 8.457031 -17.789062 8.9375 -17.4375 9.25 -16.96875 C 9.570312 -16.507812 9.734375 -15.957031 9.734375 -15.3125 C 9.734375 -14.195312 9.351562 -13.3125 8.59375 -12.65625 C 7.84375 -12.007812 6.695312 -11.6875 5.15625 -11.6875 Z M 5.15625 -11.6875 "/></g></g><g transform="translate(668.203504, 532.306409)"><g><path d="M 0.921875 2.75 C 1.597656 1.582031 2.175781 0.410156 2.65625 -0.765625 C 3.132812 -1.953125 3.515625 -3.289062 3.796875 -4.78125 C 4.085938 -6.28125 4.234375 -7.945312 4.234375 -9.78125 C 4.234375 -11.625 4.085938 -13.289062 3.796875 -14.78125 C 3.515625 -16.28125 3.132812 -17.617188 2.65625 -18.796875 C 2.1875 -19.984375 1.609375 -21.164062 0.921875 -22.34375 L 0.984375 -22.640625 L 4.09375 -22.640625 C 4.925781 -21.597656 5.664062 -20.492188 6.3125 -19.328125 C 6.957031 -18.160156 7.488281 -16.773438 7.90625 -15.171875 C 8.320312 -13.578125 8.53125 -11.78125 8.53125 -9.78125 C 8.53125 -6.90625 8.117188 -4.457031 7.296875 -2.4375 C 6.484375 -0.414062 5.414062 1.414062 4.09375 3.0625 L 0.984375 3.0625 Z M 0.921875 2.75 "/></g></g></g><g fill="#000000" fill-opacity="1"><g transform="translate(766.019266, 490.306411)"><g><path d="M 7.015625 0 L 2.78125 0 L 2.78125 -21.421875 L 7.015625 -21.421875 Z M 7.015625 0 "/></g></g><g transform="translate(775.833718, 490.306411)"><g><path d="M 7.5625 0.3125 C 6.457031 0.3125 5.445312 0.179688 4.53125 -0.078125 C 3.613281 -0.335938 2.828125 -0.691406 2.171875 -1.140625 C 1.523438 -1.597656 1.046875 -2.117188 0.734375 -2.703125 L 2.984375 -5.140625 L 3.296875 -5.140625 C 3.835938 -4.421875 4.472656 -3.878906 5.203125 -3.515625 C 5.929688 -3.148438 6.726562 -2.96875 7.59375 -2.96875 C 8.382812 -2.96875 8.976562 -3.109375 9.375 -3.390625 C 9.769531 -3.679688 9.96875 -4.085938 9.96875 -4.609375 C 9.96875 -5.023438 9.820312 -5.367188 9.53125 -5.640625 C 9.25 -5.921875 8.785156 -6.140625 8.140625 -6.296875 L 6 -6.8125 C 4.40625 -7.195312 3.238281 -7.78125 2.5 -8.5625 C 1.757812 -9.34375 1.390625 -10.34375 1.390625 -11.5625 C 1.390625 -12.5625 1.644531 -13.429688 2.15625 -14.171875 C 2.675781 -14.921875 3.398438 -15.488281 4.328125 -15.875 C 5.265625 -16.269531 6.351562 -16.46875 7.59375 -16.46875 C 9.039062 -16.46875 10.242188 -16.253906 11.203125 -15.828125 C 12.160156 -15.410156 12.910156 -14.851562 13.453125 -14.15625 L 11.28125 -11.8125 L 10.984375 -11.8125 C 10.535156 -12.3125 10.03125 -12.675781 9.46875 -12.90625 C 8.90625 -13.144531 8.28125 -13.265625 7.59375 -13.265625 C 5.988281 -13.265625 5.1875 -12.769531 5.1875 -11.78125 C 5.1875 -11.351562 5.332031 -11.007812 5.625 -10.75 C 5.925781 -10.488281 6.453125 -10.273438 7.203125 -10.109375 L 9.203125 -9.671875 C 10.835938 -9.316406 12.035156 -8.75 12.796875 -7.96875 C 13.554688 -7.195312 13.9375 -6.15625 13.9375 -4.84375 C 13.9375 -3.820312 13.679688 -2.921875 13.171875 -2.140625 C 12.660156 -1.359375 11.925781 -0.753906 10.96875 -0.328125 C 10.007812 0.0976562 8.875 0.3125 7.5625 0.3125 Z M 7.5625 0.3125 "/></g></g><g transform="translate(790.731179, 490.306411)"><g><path d="M 4.34375 -18.09375 C 3.613281 -18.09375 3.019531 -18.3125 2.5625 -18.75 C 2.101562 -19.195312 1.875 -19.773438 1.875 -20.484375 C 1.875 -21.171875 2.101562 -21.738281 2.5625 -22.1875 C 3.019531 -22.632812 3.613281 -22.859375 4.34375 -22.859375 C 4.832031 -22.859375 5.265625 -22.753906 5.640625 -22.546875 C 6.023438 -22.335938 6.320312 -22.054688 6.53125 -21.703125 C 6.75 -21.347656 6.859375 -20.941406 6.859375 -20.484375 C 6.859375 -20.023438 6.75 -19.613281 6.53125 -19.25 C 6.320312 -18.882812 6.023438 -18.597656 5.640625 -18.390625 C 5.265625 -18.191406 4.832031 -18.09375 4.34375 -18.09375 Z M 2.328125 0 L 2.328125 -16.15625 L 6.390625 -16.15625 L 6.390625 0 Z M 2.328125 0 "/></g></g><g transform="translate(799.43235, 490.306411)"><g/></g><g transform="translate(806.507545, 490.306411)"><g><path d="M 2.328125 6.546875 L 2.328125 -16.15625 L 6.390625 -16.15625 L 6.390625 -14.046875 L 6.6875 -13.984375 C 7.164062 -14.804688 7.804688 -15.425781 8.609375 -15.84375 C 9.410156 -16.257812 10.347656 -16.46875 11.421875 -16.46875 C 12.722656 -16.46875 13.859375 -16.160156 14.828125 -15.546875 C 15.804688 -14.929688 16.566406 -13.992188 17.109375 -12.734375 C 17.648438 -11.484375 17.921875 -9.929688 17.921875 -8.078125 C 17.921875 -6.222656 17.632812 -4.671875 17.0625 -3.421875 C 16.488281 -2.171875 15.691406 -1.234375 14.671875 -0.609375 C 13.660156 0.00390625 12.488281 0.3125 11.15625 0.3125 C 10.15625 0.3125 9.285156 0.144531 8.546875 -0.1875 C 7.816406 -0.53125 7.195312 -1.054688 6.6875 -1.765625 L 6.390625 -1.71875 L 6.390625 6.546875 Z M 10.03125 -3.140625 C 11.238281 -3.140625 12.15625 -3.535156 12.78125 -4.328125 C 13.40625 -5.117188 13.71875 -6.367188 13.71875 -8.078125 C 13.71875 -9.785156 13.40625 -11.035156 12.78125 -11.828125 C 12.15625 -12.617188 11.238281 -13.015625 10.03125 -13.015625 C 8.894531 -13.015625 7.992188 -12.601562 7.328125 -11.78125 C 6.671875 -10.96875 6.34375 -9.734375 6.34375 -8.078125 C 6.34375 -6.421875 6.671875 -5.179688 7.328125 -4.359375 C 7.992188 -3.546875 8.894531 -3.140625 10.03125 -3.140625 Z M 10.03125 -3.140625 "/></g></g><g transform="translate(825.85813, 490.306411)"><g><path d="M 6.296875 0.3125 C 5.265625 0.3125 4.367188 0.125 3.609375 -0.25 C 2.847656 -0.632812 2.257812 -1.195312 1.84375 -1.9375 C 1.4375 -2.675781 1.234375 -3.5625 1.234375 -4.59375 C 1.234375 -5.550781 1.4375 -6.351562 1.84375 -7 C 2.257812 -7.65625 2.894531 -8.191406 3.75 -8.609375 C 4.613281 -9.023438 5.738281 -9.34375 7.125 -9.5625 C 8.082031 -9.71875 8.8125 -9.890625 9.3125 -10.078125 C 9.820312 -10.265625 10.164062 -10.472656 10.34375 -10.703125 C 10.519531 -10.941406 10.609375 -11.242188 10.609375 -11.609375 C 10.609375 -12.117188 10.425781 -12.507812 10.0625 -12.78125 C 9.695312 -13.0625 9.097656 -13.203125 8.265625 -13.203125 C 7.367188 -13.203125 6.515625 -13 5.703125 -12.59375 C 4.890625 -12.195312 4.1875 -11.671875 3.59375 -11.015625 L 3.296875 -11.015625 L 1.59375 -13.578125 C 2.414062 -14.484375 3.414062 -15.191406 4.59375 -15.703125 C 5.78125 -16.210938 7.070312 -16.46875 8.46875 -16.46875 C 10.601562 -16.46875 12.148438 -16.007812 13.109375 -15.09375 C 14.066406 -14.1875 14.546875 -12.898438 14.546875 -11.234375 L 14.546875 -4.21875 C 14.546875 -3.5 14.863281 -3.140625 15.5 -3.140625 C 15.738281 -3.140625 15.976562 -3.179688 16.21875 -3.265625 L 16.421875 -3.203125 L 16.71875 -0.375 C 16.488281 -0.226562 16.171875 -0.109375 15.765625 -0.015625 C 15.367188 0.078125 14.929688 0.125 14.453125 0.125 C 13.492188 0.125 12.738281 -0.0625 12.1875 -0.4375 C 11.644531 -0.8125 11.257812 -1.394531 11.03125 -2.1875 L 10.71875 -2.21875 C 9.925781 -0.53125 8.453125 0.3125 6.296875 0.3125 Z M 7.59375 -2.71875 C 8.53125 -2.71875 9.273438 -3.03125 9.828125 -3.65625 C 10.390625 -4.289062 10.671875 -5.171875 10.671875 -6.296875 L 10.671875 -7.9375 L 10.40625 -8 C 10.15625 -7.800781 9.832031 -7.632812 9.4375 -7.5 C 9.039062 -7.375 8.472656 -7.25 7.734375 -7.125 C 6.859375 -6.976562 6.226562 -6.722656 5.84375 -6.359375 C 5.457031 -6.003906 5.265625 -5.5 5.265625 -4.84375 C 5.265625 -4.15625 5.46875 -3.628906 5.875 -3.265625 C 6.28125 -2.898438 6.851562 -2.71875 7.59375 -2.71875 Z M 7.59375 -2.71875 "/></g></g><g transform="translate(842.894262, 490.306411)"><g><path d="M 7.984375 0.3125 C 6.703125 0.3125 5.570312 0.00390625 4.59375 -0.609375 C 3.613281 -1.234375 2.84375 -2.171875 2.28125 -3.421875 C 1.726562 -4.679688 1.453125 -6.234375 1.453125 -8.078125 C 1.453125 -9.921875 1.738281 -11.46875 2.3125 -12.71875 C 2.882812 -13.976562 3.675781 -14.914062 4.6875 -15.53125 C 5.695312 -16.15625 6.863281 -16.46875 8.1875 -16.46875 C 9.195312 -16.46875 10.066406 -16.289062 10.796875 -15.9375 C 11.535156 -15.59375 12.160156 -15.054688 12.671875 -14.328125 L 12.984375 -14.40625 L 12.984375 -22.640625 L 17.03125 -22.640625 L 17.03125 0 L 12.984375 0 L 12.984375 -2.09375 L 12.671875 -2.15625 C 12.222656 -1.394531 11.609375 -0.789062 10.828125 -0.34375 C 10.046875 0.09375 9.097656 0.3125 7.984375 0.3125 Z M 9.296875 -3.140625 C 10.441406 -3.140625 11.347656 -3.546875 12.015625 -4.359375 C 12.679688 -5.171875 13.015625 -6.410156 13.015625 -8.078125 C 13.015625 -9.734375 12.679688 -10.96875 12.015625 -11.78125 C 11.347656 -12.601562 10.441406 -13.015625 9.296875 -13.015625 C 8.109375 -13.015625 7.195312 -12.617188 6.5625 -11.828125 C 5.9375 -11.035156 5.625 -9.785156 5.625 -8.078125 C 5.625 -6.367188 5.9375 -5.117188 6.5625 -4.328125 C 7.195312 -3.535156 8.109375 -3.140625 9.296875 -3.140625 Z M 9.296875 -3.140625 "/></g></g><g transform="translate(862.259495, 490.306411)"><g><path d="M 7.390625 0.3125 C 5.578125 0.3125 4.238281 -0.179688 3.375 -1.171875 C 2.507812 -2.171875 2.078125 -3.597656 2.078125 -5.453125 L 2.078125 -16.15625 L 6.140625 -16.15625 L 6.140625 -5.96875 C 6.140625 -4.976562 6.347656 -4.253906 6.765625 -3.796875 C 7.191406 -3.347656 7.851562 -3.125 8.75 -3.125 C 9.875 -3.125 10.75 -3.488281 11.375 -4.21875 C 12 -4.957031 12.3125 -6.117188 12.3125 -7.703125 L 12.3125 -16.15625 L 16.359375 -16.15625 L 16.359375 0 L 12.46875 0 L 12.46875 -2.375 L 12.15625 -2.453125 C 11.632812 -1.523438 11 -0.832031 10.25 -0.375 C 9.507812 0.0820312 8.554688 0.3125 7.390625 0.3125 Z M 7.390625 0.3125 "/></g></g></g><g fill="#000000" fill-opacity="1"><g transform="translate(785.202858, 532.306409)"><g><path d="M 6.546875 3.0625 C 5.222656 1.414062 4.15625 -0.414062 3.34375 -2.4375 C 2.53125 -4.457031 2.125 -6.90625 2.125 -9.78125 C 2.125 -12.675781 2.53125 -15.132812 3.34375 -17.15625 C 4.15625 -19.175781 5.222656 -21.003906 6.546875 -22.640625 L 9.671875 -22.640625 L 9.734375 -22.34375 C 8.671875 -20.53125 7.851562 -18.648438 7.28125 -16.703125 C 6.707031 -14.765625 6.421875 -12.457031 6.421875 -9.78125 C 6.421875 -7.113281 6.707031 -4.804688 7.28125 -2.859375 C 7.851562 -0.921875 8.671875 0.945312 9.734375 2.75 L 9.671875 3.0625 Z M 6.546875 3.0625 "/></g></g><g transform="translate(795.852272, 532.306409)"><g><path d="M 9.421875 0.3125 C 7.859375 0.3125 6.472656 -0.0078125 5.265625 -0.65625 C 4.066406 -1.3125 3.128906 -2.269531 2.453125 -3.53125 C 1.785156 -4.789062 1.453125 -6.304688 1.453125 -8.078125 C 1.453125 -9.847656 1.785156 -11.363281 2.453125 -12.625 C 3.128906 -13.882812 4.0625 -14.835938 5.25 -15.484375 C 6.445312 -16.140625 7.8125 -16.46875 9.34375 -16.46875 C 12.75 -16.46875 14.929688 -15.234375 15.890625 -12.765625 L 13.109375 -10.765625 L 12.796875 -10.765625 C 12.472656 -11.523438 12.039062 -12.085938 11.5 -12.453125 C 10.96875 -12.828125 10.25 -13.015625 9.34375 -13.015625 C 8.175781 -13.015625 7.265625 -12.609375 6.609375 -11.796875 C 5.953125 -10.992188 5.625 -9.753906 5.625 -8.078125 C 5.625 -6.410156 5.957031 -5.171875 6.625 -4.359375 C 7.289062 -3.546875 8.222656 -3.140625 9.421875 -3.140625 C 10.296875 -3.140625 11.035156 -3.375 11.640625 -3.84375 C 12.253906 -4.320312 12.695312 -5.003906 12.96875 -5.890625 L 13.265625 -5.921875 L 16.15625 -4.34375 C 15.75 -2.96875 14.988281 -1.847656 13.875 -0.984375 C 12.769531 -0.117188 11.285156 0.3125 9.421875 0.3125 Z M 9.421875 0.3125 "/></g></g><g transform="translate(812.507545, 532.306409)"><g><path d="M 2.328125 0 L 2.328125 -16.15625 L 6.21875 -16.15625 L 6.21875 -13.984375 L 6.53125 -13.9375 C 7.0625 -14.800781 7.679688 -15.4375 8.390625 -15.84375 C 9.097656 -16.257812 10.003906 -16.46875 11.109375 -16.46875 C 12.328125 -16.46875 13.304688 -16.222656 14.046875 -15.734375 C 14.785156 -15.253906 15.328125 -14.550781 15.671875 -13.625 L 15.984375 -13.625 C 16.484375 -14.59375 17.125 -15.304688 17.90625 -15.765625 C 18.695312 -16.234375 19.675781 -16.46875 20.84375 -16.46875 C 24.195312 -16.46875 25.875 -14.601562 25.875 -10.875 L 25.875 0 L 21.8125 0 L 21.8125 -10.359375 C 21.8125 -11.304688 21.625 -11.988281 21.25 -12.40625 C 20.882812 -12.820312 20.289062 -13.03125 19.46875 -13.03125 C 17.238281 -13.03125 16.125 -11.539062 16.125 -8.5625 L 16.125 0 L 12.078125 0 L 12.078125 -10.359375 C 12.078125 -11.304688 11.882812 -11.988281 11.5 -12.40625 C 11.125 -12.820312 10.53125 -13.03125 9.71875 -13.03125 C 8.664062 -13.03125 7.847656 -12.679688 7.265625 -11.984375 C 6.679688 -11.285156 6.390625 -10.175781 6.390625 -8.65625 L 6.390625 0 Z M 2.328125 0 "/></g></g><g transform="translate(840.456762, 532.306409)"><g><path d="M 5.15625 -11.6875 C 3.84375 -11.6875 2.800781 -11.953125 2.03125 -12.484375 C 1.269531 -13.015625 0.785156 -13.757812 0.578125 -14.71875 L 2.796875 -15.734375 L 3.078125 -15.671875 C 3.285156 -15.234375 3.539062 -14.898438 3.84375 -14.671875 C 4.15625 -14.441406 4.566406 -14.328125 5.078125 -14.328125 C 5.535156 -14.328125 5.898438 -14.429688 6.171875 -14.640625 C 6.453125 -14.847656 6.59375 -15.164062 6.59375 -15.59375 C 6.59375 -16.445312 6.046875 -16.875 4.953125 -16.875 L 3.359375 -16.875 L 3.359375 -18.9375 L 4.765625 -18.9375 C 5.234375 -18.9375 5.585938 -19.03125 5.828125 -19.21875 C 6.078125 -19.414062 6.203125 -19.695312 6.203125 -20.0625 C 6.203125 -20.40625 6.09375 -20.671875 5.875 -20.859375 C 5.65625 -21.054688 5.320312 -21.15625 4.875 -21.15625 C 3.945312 -21.15625 3.222656 -20.78125 2.703125 -20.03125 L 2.453125 -20 L 0.984375 -21.765625 C 1.390625 -22.296875 1.945312 -22.726562 2.65625 -23.0625 C 3.363281 -23.394531 4.238281 -23.5625 5.28125 -23.5625 C 6.582031 -23.5625 7.566406 -23.304688 8.234375 -22.796875 C 8.910156 -22.285156 9.25 -21.585938 9.25 -20.703125 C 9.25 -19.628906 8.769531 -18.820312 7.8125 -18.28125 L 7.8125 -18.03125 C 8.457031 -17.789062 8.9375 -17.4375 9.25 -16.96875 C 9.570312 -16.507812 9.734375 -15.957031 9.734375 -15.3125 C 9.734375 -14.195312 9.351562 -13.3125 8.59375 -12.65625 C 7.84375 -12.007812 6.695312 -11.6875 5.15625 -11.6875 Z M 5.15625 -11.6875 "/></g></g><g transform="translate(851.135472, 532.306409)"><g><path d="M 0.921875 2.75 C 1.597656 1.582031 2.175781 0.410156 2.65625 -0.765625 C 3.132812 -1.953125 3.515625 -3.289062 3.796875 -4.78125 C 4.085938 -6.28125 4.234375 -7.945312 4.234375 -9.78125 C 4.234375 -11.625 4.085938 -13.289062 3.796875 -14.78125 C 3.515625 -16.28125 3.132812 -17.617188 2.65625 -18.796875 C 2.1875 -19.984375 1.609375 -21.164062 0.921875 -22.34375 L 0.984375 -22.640625 L 4.09375 -22.640625 C 4.925781 -21.597656 5.664062 -20.492188 6.3125 -19.328125 C 6.957031 -18.160156 7.488281 -16.773438 7.90625 -15.171875 C 8.320312 -13.578125 8.53125 -11.78125 8.53125 -9.78125 C 8.53125 -6.90625 8.117188 -4.457031 7.296875 -2.4375 C 6.484375 -0.414062 5.414062 1.414062 4.09375 3.0625 L 0.984375 3.0625 Z M 0.921875 2.75 "/></g></g></g><g fill="#000000" fill-opacity="1"><g transform="translate(681.504395, 277.997041)"><g><path d="M 7.5 0.3125 C 5.6875 0.3125 4.175781 -0.03125 2.96875 -0.71875 C 1.769531 -1.414062 0.898438 -2.34375 0.359375 -3.5 L 2.734375 -6.40625 L 3.109375 -6.40625 C 3.492188 -5.46875 4.046875 -4.726562 4.765625 -4.1875 C 5.484375 -3.644531 6.316406 -3.375 7.265625 -3.375 C 8.328125 -3.375 9.117188 -3.679688 9.640625 -4.296875 C 10.160156 -4.921875 10.421875 -5.929688 10.421875 -7.328125 L 10.421875 -21.421875 L 14.640625 -21.421875 L 14.640625 -7.25 C 14.640625 -4.664062 14.050781 -2.757812 12.875 -1.53125 C 11.695312 -0.300781 9.90625 0.3125 7.5 0.3125 Z M 7.5 0.3125 "/></g></g><g transform="translate(698.78955, 277.997041)"><g><path d="M 4.34375 -18.09375 C 3.613281 -18.09375 3.019531 -18.3125 2.5625 -18.75 C 2.101562 -19.195312 1.875 -19.773438 1.875 -20.484375 C 1.875 -21.171875 2.101562 -21.738281 2.5625 -22.1875 C 3.019531 -22.632812 3.613281 -22.859375 4.34375 -22.859375 C 4.832031 -22.859375 5.265625 -22.753906 5.640625 -22.546875 C 6.023438 -22.335938 6.320312 -22.054688 6.53125 -21.703125 C 6.75 -21.347656 6.859375 -20.941406 6.859375 -20.484375 C 6.859375 -20.023438 6.75 -19.613281 6.53125 -19.25 C 6.320312 -18.882812 6.023438 -18.597656 5.640625 -18.390625 C 5.265625 -18.191406 4.832031 -18.09375 4.34375 -18.09375 Z M 2.328125 0 L 2.328125 -16.15625 L 6.390625 -16.15625 L 6.390625 0 Z M 2.328125 0 "/></g></g><g transform="translate(707.490722, 277.997041)"><g><path d="M 7.5625 0.3125 C 6.457031 0.3125 5.445312 0.179688 4.53125 -0.078125 C 3.613281 -0.335938 2.828125 -0.691406 2.171875 -1.140625 C 1.523438 -1.597656 1.046875 -2.117188 0.734375 -2.703125 L 2.984375 -5.140625 L 3.296875 -5.140625 C 3.835938 -4.421875 4.472656 -3.878906 5.203125 -3.515625 C 5.929688 -3.148438 6.726562 -2.96875 7.59375 -2.96875 C 8.382812 -2.96875 8.976562 -3.109375 9.375 -3.390625 C 9.769531 -3.679688 9.96875 -4.085938 9.96875 -4.609375 C 9.96875 -5.023438 9.820312 -5.367188 9.53125 -5.640625 C 9.25 -5.921875 8.785156 -6.140625 8.140625 -6.296875 L 6 -6.8125 C 4.40625 -7.195312 3.238281 -7.78125 2.5 -8.5625 C 1.757812 -9.34375 1.390625 -10.34375 1.390625 -11.5625 C 1.390625 -12.5625 1.644531 -13.429688 2.15625 -14.171875 C 2.675781 -14.921875 3.398438 -15.488281 4.328125 -15.875 C 5.265625 -16.269531 6.351562 -16.46875 7.59375 -16.46875 C 9.039062 -16.46875 10.242188 -16.253906 11.203125 -15.828125 C 12.160156 -15.410156 12.910156 -14.851562 13.453125 -14.15625 L 11.28125 -11.8125 L 10.984375 -11.8125 C 10.535156 -12.3125 10.03125 -12.675781 9.46875 -12.90625 C 8.90625 -13.144531 8.28125 -13.265625 7.59375 -13.265625 C 5.988281 -13.265625 5.1875 -12.769531 5.1875 -11.78125 C 5.1875 -11.351562 5.332031 -11.007812 5.625 -10.75 C 5.925781 -10.488281 6.453125 -10.273438 7.203125 -10.109375 L 9.203125 -9.671875 C 10.835938 -9.316406 12.035156 -8.75 12.796875 -7.96875 C 13.554688 -7.195312 13.9375 -6.15625 13.9375 -4.84375 C 13.9375 -3.820312 13.679688 -2.921875 13.171875 -2.140625 C 12.660156 -1.359375 11.925781 -0.753906 10.96875 -0.328125 C 10.007812 0.0976562 8.875 0.3125 7.5625 0.3125 Z M 7.5625 0.3125 "/></g></g><g transform="translate(722.388182, 277.997041)"><g><path d="M 4.34375 -18.09375 C 3.613281 -18.09375 3.019531 -18.3125 2.5625 -18.75 C 2.101562 -19.195312 1.875 -19.773438 1.875 -20.484375 C 1.875 -21.171875 2.101562 -21.738281 2.5625 -22.1875 C 3.019531 -22.632812 3.613281 -22.859375 4.34375 -22.859375 C 4.832031 -22.859375 5.265625 -22.753906 5.640625 -22.546875 C 6.023438 -22.335938 6.320312 -22.054688 6.53125 -21.703125 C 6.75 -21.347656 6.859375 -20.941406 6.859375 -20.484375 C 6.859375 -20.023438 6.75 -19.613281 6.53125 -19.25 C 6.320312 -18.882812 6.023438 -18.597656 5.640625 -18.390625 C 5.265625 -18.191406 4.832031 -18.09375 4.34375 -18.09375 Z M 2.328125 0 L 2.328125 -16.15625 L 6.390625 -16.15625 L 6.390625 0 Z M 2.328125 0 "/></g></g><g transform="translate(731.089353, 277.997041)"><g><path d="M 2.328125 0 L 2.328125 -16.15625 L 6.21875 -16.15625 L 6.21875 -13.984375 L 6.53125 -13.9375 C 7.0625 -14.800781 7.679688 -15.4375 8.390625 -15.84375 C 9.097656 -16.257812 10.003906 -16.46875 11.109375 -16.46875 C 12.328125 -16.46875 13.304688 -16.222656 14.046875 -15.734375 C 14.785156 -15.253906 15.328125 -14.550781 15.671875 -13.625 L 15.984375 -13.625 C 16.484375 -14.59375 17.125 -15.304688 17.90625 -15.765625 C 18.695312 -16.234375 19.675781 -16.46875 20.84375 -16.46875 C 24.195312 -16.46875 25.875 -14.601562 25.875 -10.875 L 25.875 0 L 21.8125 0 L 21.8125 -10.359375 C 21.8125 -11.304688 21.625 -11.988281 21.25 -12.40625 C 20.882812 -12.820312 20.289062 -13.03125 19.46875 -13.03125 C 17.238281 -13.03125 16.125 -11.539062 16.125 -8.5625 L 16.125 0 L 12.078125 0 L 12.078125 -10.359375 C 12.078125 -11.304688 11.882812 -11.988281 11.5 -12.40625 C 11.125 -12.820312 10.53125 -13.03125 9.71875 -13.03125 C 8.664062 -13.03125 7.847656 -12.679688 7.265625 -11.984375 C 6.679688 -11.285156 6.390625 -10.175781 6.390625 -8.65625 L 6.390625 0 Z M 2.328125 0 "/></g></g></g><g fill="#000000" fill-opacity="1"><g transform="translate(701.215331, 319.997039)"><g><path d="M 6.546875 3.0625 C 5.222656 1.414062 4.15625 -0.414062 3.34375 -2.4375 C 2.53125 -4.457031 2.125 -6.90625 2.125 -9.78125 C 2.125 -12.675781 2.53125 -15.132812 3.34375 -17.15625 C 4.15625 -19.175781 5.222656 -21.003906 6.546875 -22.640625 L 9.671875 -22.640625 L 9.734375 -22.34375 C 8.671875 -20.53125 7.851562 -18.648438 7.28125 -16.703125 C 6.707031 -14.765625 6.421875 -12.457031 6.421875 -9.78125 C 6.421875 -7.113281 6.707031 -4.804688 7.28125 -2.859375 C 7.851562 -0.921875 8.671875 0.945312 9.734375 2.75 L 9.671875 3.0625 Z M 6.546875 3.0625 "/></g></g><g transform="translate(711.864745, 319.997039)"><g><path d="M 8.375 6.859375 C 5.707031 6.859375 3.738281 6.46875 2.46875 5.6875 C 1.207031 4.90625 0.578125 3.816406 0.578125 2.421875 C 0.578125 1.566406 0.847656 0.867188 1.390625 0.328125 C 1.929688 -0.210938 2.707031 -0.578125 3.71875 -0.765625 L 3.71875 -1.0625 C 3.175781 -1.394531 2.785156 -1.765625 2.546875 -2.171875 C 2.304688 -2.578125 2.1875 -3.050781 2.1875 -3.59375 C 2.1875 -4.882812 3.03125 -5.757812 4.71875 -6.21875 L 4.71875 -6.515625 C 3.84375 -7.015625 3.1875 -7.632812 2.75 -8.375 C 2.3125 -9.113281 2.09375 -10.003906 2.09375 -11.046875 C 2.09375 -12.117188 2.335938 -13.0625 2.828125 -13.875 C 3.328125 -14.695312 4.050781 -15.332031 5 -15.78125 C 5.957031 -16.238281 7.097656 -16.46875 8.421875 -16.46875 C 9.765625 -16.46875 10.835938 -16.234375 11.640625 -15.765625 C 12.140625 -16.484375 12.429688 -17.316406 12.515625 -18.265625 L 12.8125 -18.453125 L 15.734375 -17.734375 C 15.640625 -16.960938 15.410156 -16.316406 15.046875 -15.796875 C 14.691406 -15.273438 14.132812 -14.8125 13.375 -14.40625 L 13.375 -14.078125 C 14.28125 -13.273438 14.734375 -12.15625 14.734375 -10.71875 C 14.734375 -9.726562 14.484375 -8.835938 13.984375 -8.046875 C 13.492188 -7.253906 12.769531 -6.628906 11.8125 -6.171875 C 10.863281 -5.710938 9.734375 -5.484375 8.421875 -5.484375 L 7.8125 -5.5 C 7.414062 -5.507812 7.140625 -5.515625 6.984375 -5.515625 C 6.617188 -5.515625 6.328125 -5.414062 6.109375 -5.21875 C 5.898438 -5.019531 5.796875 -4.765625 5.796875 -4.453125 C 5.796875 -4.109375 5.929688 -3.84375 6.203125 -3.65625 C 6.484375 -3.46875 6.882812 -3.363281 7.40625 -3.34375 L 11.03125 -3.203125 C 14.601562 -3.097656 16.390625 -1.5625 16.390625 1.40625 C 16.390625 2.445312 16.125 3.375 15.59375 4.1875 C 15.0625 5.007812 14.195312 5.660156 13 6.140625 C 11.8125 6.617188 10.269531 6.859375 8.375 6.859375 Z M 8.421875 -8.328125 C 9.203125 -8.328125 9.8125 -8.554688 10.25 -9.015625 C 10.6875 -9.472656 10.90625 -10.125 10.90625 -10.96875 C 10.90625 -11.820312 10.6875 -12.472656 10.25 -12.921875 C 9.8125 -13.378906 9.203125 -13.609375 8.421875 -13.609375 C 7.628906 -13.609375 7.019531 -13.378906 6.59375 -12.921875 C 6.164062 -12.472656 5.953125 -11.820312 5.953125 -10.96875 C 5.953125 -10.113281 6.164062 -9.457031 6.59375 -9 C 7.019531 -8.550781 7.628906 -8.328125 8.421875 -8.328125 Z M 8.375 3.90625 C 9.757812 3.90625 10.765625 3.707031 11.390625 3.3125 C 12.023438 2.925781 12.34375 2.421875 12.34375 1.796875 C 12.34375 1.296875 12.179688 0.925781 11.859375 0.6875 C 11.535156 0.445312 11.023438 0.316406 10.328125 0.296875 L 7.140625 0.140625 C 7.023438 0.140625 6.921875 0.132812 6.828125 0.125 C 6.734375 0.125 6.644531 0.125 6.5625 0.125 C 5.875 0.125 5.351562 0.269531 5 0.5625 C 4.644531 0.851562 4.46875 1.253906 4.46875 1.765625 C 4.46875 2.453125 4.796875 2.976562 5.453125 3.34375 C 6.109375 3.71875 7.082031 3.90625 8.375 3.90625 Z M 8.375 3.90625 "/></g></g><g transform="translate(728.666502, 319.997039)"><g><path d="M 0.921875 2.75 C 1.597656 1.582031 2.175781 0.410156 2.65625 -0.765625 C 3.132812 -1.953125 3.515625 -3.289062 3.796875 -4.78125 C 4.085938 -6.28125 4.234375 -7.945312 4.234375 -9.78125 C 4.234375 -11.625 4.085938 -13.289062 3.796875 -14.78125 C 3.515625 -16.28125 3.132812 -17.617188 2.65625 -18.796875 C 2.1875 -19.984375 1.609375 -21.164062 0.921875 -22.34375 L 0.984375 -22.640625 L 4.09375 -22.640625 C 4.925781 -21.597656 5.664062 -20.492188 6.3125 -19.328125 C 6.957031 -18.160156 7.488281 -16.773438 7.90625 -15.171875 C 8.320312 -13.578125 8.53125 -11.78125 8.53125 -9.78125 C 8.53125 -6.90625 8.117188 -4.457031 7.296875 -2.4375 C 6.484375 -0.414062 5.414062 1.414062 4.09375 3.0625 L 0.984375 3.0625 Z M 0.921875 2.75 "/></g></g></g></svg>